<mxfile host="app.diagrams.net" modified="2024-06-15T03:34:45.807Z" agent="Mozilla/5.0 (Windows NT 10.0; Win64; x64) AppleWebKit/537.36 (KHTML, like Gecko) Chrome/125.0.0.0 Safari/537.36" etag="5kXP1SMqf3t0wqI8iyHK" version="24.5.4" type="device">
  <diagram name="Page-1" id="U4lsj-YfNaRnEZjGEMO7">
    <mxGraphModel dx="1588" dy="908" grid="1" gridSize="10" guides="1" tooltips="1" connect="1" arrows="1" fold="1" page="1" pageScale="1" pageWidth="1100" pageHeight="850" math="0" shadow="0">
      <root>
        <mxCell id="0" />
        <mxCell id="1" parent="0" />
        <mxCell id="kCCZZ7Ucuncl2e799Scy-2" value="Pegawai" style="rounded=0;whiteSpace=wrap;html=1;" vertex="1" parent="1">
          <mxGeometry x="260" y="250" width="150" height="70" as="geometry" />
        </mxCell>
        <mxCell id="kCCZZ7Ucuncl2e799Scy-5" value="Project" style="rounded=0;whiteSpace=wrap;html=1;" vertex="1" parent="1">
          <mxGeometry x="260" y="470" width="150" height="70" as="geometry" />
        </mxCell>
        <mxCell id="kCCZZ7Ucuncl2e799Scy-6" value="Divisi" style="rounded=0;whiteSpace=wrap;html=1;" vertex="1" parent="1">
          <mxGeometry x="700" y="250" width="150" height="70" as="geometry" />
        </mxCell>
        <mxCell id="kCCZZ7Ucuncl2e799Scy-7" value="&lt;u&gt;kode_divisi&lt;/u&gt;" style="ellipse;whiteSpace=wrap;html=1;" vertex="1" parent="1">
          <mxGeometry x="620" y="180" width="80" height="50" as="geometry" />
        </mxCell>
        <mxCell id="kCCZZ7Ucuncl2e799Scy-8" value="&lt;u&gt;kode_pegawai&lt;/u&gt;" style="ellipse;whiteSpace=wrap;html=1;" vertex="1" parent="1">
          <mxGeometry x="180" y="180" width="80" height="50" as="geometry" />
        </mxCell>
        <mxCell id="kCCZZ7Ucuncl2e799Scy-9" value="&lt;u&gt;kode_project&lt;/u&gt;" style="ellipse;whiteSpace=wrap;html=1;" vertex="1" parent="1">
          <mxGeometry x="180" y="570" width="80" height="50" as="geometry" />
        </mxCell>
        <mxCell id="kCCZZ7Ucuncl2e799Scy-10" value="nama" style="ellipse;whiteSpace=wrap;html=1;" vertex="1" parent="1">
          <mxGeometry x="295" y="180" width="80" height="50" as="geometry" />
        </mxCell>
        <mxCell id="kCCZZ7Ucuncl2e799Scy-13" value="alamat" style="ellipse;whiteSpace=wrap;html=1;" vertex="1" parent="1">
          <mxGeometry x="410" y="180" width="80" height="50" as="geometry" />
        </mxCell>
        <mxCell id="kCCZZ7Ucuncl2e799Scy-14" value="gaji_divisi" style="ellipse;whiteSpace=wrap;html=1;" vertex="1" parent="1">
          <mxGeometry x="840" y="180" width="80" height="50" as="geometry" />
        </mxCell>
        <mxCell id="kCCZZ7Ucuncl2e799Scy-15" value="nama" style="ellipse;whiteSpace=wrap;html=1;" vertex="1" parent="1">
          <mxGeometry x="735" y="180" width="80" height="50" as="geometry" />
        </mxCell>
        <mxCell id="kCCZZ7Ucuncl2e799Scy-16" value="nama_project" style="ellipse;whiteSpace=wrap;html=1;" vertex="1" parent="1">
          <mxGeometry x="410" y="570" width="80" height="50" as="geometry" />
        </mxCell>
        <mxCell id="kCCZZ7Ucuncl2e799Scy-17" value="anggaran_project" style="ellipse;whiteSpace=wrap;html=1;" vertex="1" parent="1">
          <mxGeometry x="285" y="570" width="100" height="50" as="geometry" />
        </mxCell>
        <mxCell id="kCCZZ7Ucuncl2e799Scy-18" value="menggarap" style="rhombus;whiteSpace=wrap;html=1;" vertex="1" parent="1">
          <mxGeometry x="282.5" y="370" width="105" height="60" as="geometry" />
        </mxCell>
        <mxCell id="kCCZZ7Ucuncl2e799Scy-19" value="bekerja" style="rhombus;whiteSpace=wrap;html=1;" vertex="1" parent="1">
          <mxGeometry x="490" y="255" width="105" height="60" as="geometry" />
        </mxCell>
        <mxCell id="kCCZZ7Ucuncl2e799Scy-20" value="menangani" style="rhombus;whiteSpace=wrap;html=1;" vertex="1" parent="1">
          <mxGeometry x="722.5" y="475" width="105" height="60" as="geometry" />
        </mxCell>
        <mxCell id="kCCZZ7Ucuncl2e799Scy-21" value="" style="endArrow=none;html=1;rounded=0;entryX=0;entryY=0.5;entryDx=0;entryDy=0;exitX=1;exitY=0.5;exitDx=0;exitDy=0;startArrow=ERone;startFill=0;" edge="1" parent="1" source="kCCZZ7Ucuncl2e799Scy-2" target="kCCZZ7Ucuncl2e799Scy-19">
          <mxGeometry width="50" height="50" relative="1" as="geometry">
            <mxPoint x="460" y="310" as="sourcePoint" />
            <mxPoint x="510" y="260" as="targetPoint" />
          </mxGeometry>
        </mxCell>
        <mxCell id="kCCZZ7Ucuncl2e799Scy-22" value="" style="endArrow=ERone;html=1;rounded=0;entryX=0;entryY=0.5;entryDx=0;entryDy=0;exitX=1;exitY=0.5;exitDx=0;exitDy=0;endFill=0;" edge="1" parent="1" source="kCCZZ7Ucuncl2e799Scy-19" target="kCCZZ7Ucuncl2e799Scy-6">
          <mxGeometry width="50" height="50" relative="1" as="geometry">
            <mxPoint x="690" y="320" as="sourcePoint" />
            <mxPoint x="790" y="280" as="targetPoint" />
          </mxGeometry>
        </mxCell>
        <mxCell id="kCCZZ7Ucuncl2e799Scy-23" value="" style="endArrow=none;html=1;rounded=0;entryX=0.5;entryY=0;entryDx=0;entryDy=0;exitX=0.5;exitY=1;exitDx=0;exitDy=0;endFill=0;startArrow=ERone;startFill=0;" edge="1" parent="1" source="kCCZZ7Ucuncl2e799Scy-2" target="kCCZZ7Ucuncl2e799Scy-18">
          <mxGeometry width="50" height="50" relative="1" as="geometry">
            <mxPoint x="430" y="305" as="sourcePoint" />
            <mxPoint x="580" y="305" as="targetPoint" />
          </mxGeometry>
        </mxCell>
        <mxCell id="kCCZZ7Ucuncl2e799Scy-24" value="" style="endArrow=ERoneToMany;html=1;rounded=0;entryX=0.5;entryY=0;entryDx=0;entryDy=0;exitX=0.5;exitY=1;exitDx=0;exitDy=0;endFill=0;" edge="1" parent="1" source="kCCZZ7Ucuncl2e799Scy-18" target="kCCZZ7Ucuncl2e799Scy-5">
          <mxGeometry width="50" height="50" relative="1" as="geometry">
            <mxPoint x="440" y="315" as="sourcePoint" />
            <mxPoint x="590" y="315" as="targetPoint" />
          </mxGeometry>
        </mxCell>
        <mxCell id="kCCZZ7Ucuncl2e799Scy-25" value="" style="endArrow=none;html=1;rounded=0;entryX=0;entryY=0.5;entryDx=0;entryDy=0;exitX=1;exitY=0.5;exitDx=0;exitDy=0;startArrow=ERone;startFill=0;" edge="1" parent="1" source="kCCZZ7Ucuncl2e799Scy-5" target="kCCZZ7Ucuncl2e799Scy-20">
          <mxGeometry width="50" height="50" relative="1" as="geometry">
            <mxPoint x="450" y="325" as="sourcePoint" />
            <mxPoint x="600" y="325" as="targetPoint" />
          </mxGeometry>
        </mxCell>
        <mxCell id="kCCZZ7Ucuncl2e799Scy-26" value="" style="endArrow=none;html=1;rounded=0;entryX=0.5;entryY=0;entryDx=0;entryDy=0;exitX=0.5;exitY=1;exitDx=0;exitDy=0;startArrow=ERone;startFill=0;" edge="1" parent="1" source="kCCZZ7Ucuncl2e799Scy-6" target="kCCZZ7Ucuncl2e799Scy-20">
          <mxGeometry width="50" height="50" relative="1" as="geometry">
            <mxPoint x="350" y="335" as="sourcePoint" />
            <mxPoint x="500" y="335" as="targetPoint" />
          </mxGeometry>
        </mxCell>
        <mxCell id="kCCZZ7Ucuncl2e799Scy-27" value="" style="endArrow=none;html=1;rounded=0;entryX=0.5;entryY=0;entryDx=0;entryDy=0;" edge="1" parent="1" source="kCCZZ7Ucuncl2e799Scy-8" target="kCCZZ7Ucuncl2e799Scy-2">
          <mxGeometry width="50" height="50" relative="1" as="geometry">
            <mxPoint x="470" y="345" as="sourcePoint" />
            <mxPoint x="620" y="345" as="targetPoint" />
          </mxGeometry>
        </mxCell>
        <mxCell id="kCCZZ7Ucuncl2e799Scy-28" value="" style="endArrow=none;html=1;rounded=0;entryX=0.5;entryY=0;entryDx=0;entryDy=0;" edge="1" parent="1" source="kCCZZ7Ucuncl2e799Scy-10" target="kCCZZ7Ucuncl2e799Scy-2">
          <mxGeometry width="50" height="50" relative="1" as="geometry">
            <mxPoint x="480" y="355" as="sourcePoint" />
            <mxPoint x="630" y="355" as="targetPoint" />
          </mxGeometry>
        </mxCell>
        <mxCell id="kCCZZ7Ucuncl2e799Scy-29" value="" style="endArrow=none;html=1;rounded=0;entryX=0.5;entryY=0;entryDx=0;entryDy=0;" edge="1" parent="1" source="kCCZZ7Ucuncl2e799Scy-13" target="kCCZZ7Ucuncl2e799Scy-2">
          <mxGeometry width="50" height="50" relative="1" as="geometry">
            <mxPoint x="490" y="365" as="sourcePoint" />
            <mxPoint x="640" y="365" as="targetPoint" />
          </mxGeometry>
        </mxCell>
        <mxCell id="kCCZZ7Ucuncl2e799Scy-30" value="" style="endArrow=none;html=1;rounded=0;entryX=0.5;entryY=1;entryDx=0;entryDy=0;" edge="1" parent="1" source="kCCZZ7Ucuncl2e799Scy-9" target="kCCZZ7Ucuncl2e799Scy-5">
          <mxGeometry width="50" height="50" relative="1" as="geometry">
            <mxPoint x="500" y="375" as="sourcePoint" />
            <mxPoint x="650" y="375" as="targetPoint" />
          </mxGeometry>
        </mxCell>
        <mxCell id="kCCZZ7Ucuncl2e799Scy-31" value="" style="endArrow=none;html=1;rounded=0;entryX=0.5;entryY=1;entryDx=0;entryDy=0;" edge="1" parent="1" source="kCCZZ7Ucuncl2e799Scy-17" target="kCCZZ7Ucuncl2e799Scy-5">
          <mxGeometry width="50" height="50" relative="1" as="geometry">
            <mxPoint x="510" y="385" as="sourcePoint" />
            <mxPoint x="660" y="385" as="targetPoint" />
          </mxGeometry>
        </mxCell>
        <mxCell id="kCCZZ7Ucuncl2e799Scy-32" value="" style="endArrow=none;html=1;rounded=0;entryX=0.5;entryY=1;entryDx=0;entryDy=0;" edge="1" parent="1" source="kCCZZ7Ucuncl2e799Scy-16" target="kCCZZ7Ucuncl2e799Scy-5">
          <mxGeometry width="50" height="50" relative="1" as="geometry">
            <mxPoint x="520" y="395" as="sourcePoint" />
            <mxPoint x="670" y="395" as="targetPoint" />
          </mxGeometry>
        </mxCell>
        <mxCell id="kCCZZ7Ucuncl2e799Scy-33" value="" style="endArrow=none;html=1;rounded=0;entryX=0.5;entryY=0;entryDx=0;entryDy=0;" edge="1" parent="1" source="kCCZZ7Ucuncl2e799Scy-7" target="kCCZZ7Ucuncl2e799Scy-6">
          <mxGeometry width="50" height="50" relative="1" as="geometry">
            <mxPoint x="420" y="405" as="sourcePoint" />
            <mxPoint x="570" y="405" as="targetPoint" />
          </mxGeometry>
        </mxCell>
        <mxCell id="kCCZZ7Ucuncl2e799Scy-34" value="" style="endArrow=none;html=1;rounded=0;entryX=0.5;entryY=0;entryDx=0;entryDy=0;" edge="1" parent="1" source="kCCZZ7Ucuncl2e799Scy-15" target="kCCZZ7Ucuncl2e799Scy-6">
          <mxGeometry width="50" height="50" relative="1" as="geometry">
            <mxPoint x="430" y="415" as="sourcePoint" />
            <mxPoint x="580" y="415" as="targetPoint" />
          </mxGeometry>
        </mxCell>
        <mxCell id="kCCZZ7Ucuncl2e799Scy-35" value="" style="endArrow=none;html=1;rounded=0;entryX=0.5;entryY=0;entryDx=0;entryDy=0;" edge="1" parent="1" source="kCCZZ7Ucuncl2e799Scy-14" target="kCCZZ7Ucuncl2e799Scy-6">
          <mxGeometry width="50" height="50" relative="1" as="geometry">
            <mxPoint x="440" y="425" as="sourcePoint" />
            <mxPoint x="590" y="425" as="targetPoint" />
          </mxGeometry>
        </mxCell>
      </root>
    </mxGraphModel>
  </diagram>
</mxfile>
